<?xml version="1.0" encoding="UTF-8" standalone="no"?>
<!-- Created with Inkscape (http://www.inkscape.org/) -->

<svg
   version="1.1"
   id="svg2"
   width="666.66669"
   height="666.66669"
   viewBox="0 0 666.66669 666.66669"
   sodipodi:docname="TrueBloods_CMYK_Master.ai"
   xmlns:inkscape="http://www.inkscape.org/namespaces/inkscape"
   xmlns:sodipodi="http://sodipodi.sourceforge.net/DTD/sodipodi-0.dtd"
   xmlns="http://www.w3.org/2000/svg"
   xmlns:svg="http://www.w3.org/2000/svg">
  <defs
     id="defs6">
    <clipPath
       clipPathUnits="userSpaceOnUse"
       id="clipPath16">
      <path
         d="M 0,500 H 500 V 0 H 0 Z"
         id="path14" />
    </clipPath>
  </defs>
  <sodipodi:namedview
     id="namedview4"
     pagecolor="#ffffff"
     bordercolor="#000000"
     borderopacity="0.25"
     inkscape:showpageshadow="2"
     inkscape:pageopacity="0.0"
     inkscape:pagecheckerboard="0"
     inkscape:deskcolor="#d1d1d1" />
  <g
     id="g8"
     inkscape:groupmode="layer"
     inkscape:label="TrueBloods_CMYK_Master"
     transform="matrix(1.3333333,0,0,-1.3333333,0,666.66667)">
    <g
       id="g10">
      <g
         id="g12"
         clip-path="url(#clipPath16)">
        <g
           id="g18"
           transform="translate(431.7908,287.791)">
          <path
             d="m 0,0 c 2.524,-12.202 3.854,-24.841 3.854,-37.791 0,-102.529 -83.116,-185.645 -185.645,-185.645 -91.38,0 -167.338,66.025 -182.776,152.972 3.458,3.444 7.102,6.773 10.986,9.93 0.33,0.269 0.655,0.53 0.987,0.796 5.328,4.258 10.998,8.207 16.874,11.896 21.952,13.776 47.441,24.273 69.632,33.435 18.594,7.676 34.457,14.257 45.395,21.121 2.553,1.6 4.806,3.202 6.787,4.785 18.133,14.493 14.601,28.019 9.563,34.666 -0.101,0.133 -0.199,0.259 -0.302,0.387 -2.23,2.791 -4.842,4.503 -7.456,5.365 -4.217,1.389 -8.439,0.56 -11.067,-1.539 -0.155,-0.125 -0.307,-0.255 -0.456,-0.389 -0.86,-0.783 -1.761,-1.897 -2.698,-3.451 -2.084,-3.456 -3.697,-7.921 -5.638,-13.428 -1.723,-4.886 -3.793,-10.871 -6.753,-15.779 -2.361,-3.915 -5.219,-7.088 -8.483,-9.698 -7.403,-5.915 -16.751,-8.707 -25.405,-11.289 l -0.041,-0.011 c -12.88,-3.842 -28.556,-8.274 -44.169,-12.687 -1.771,-0.5 -3.569,-0.427 -5.194,0.108 -1.005,0.331 -1.944,0.839 -2.768,1.495 h 0.002 c -0.019,0.015 -0.039,0.029 -0.057,0.043 -0.173,0.14 -0.323,0.305 -0.485,0.457 0.157,-0.148 0.303,-0.308 0.469,-0.444 -0.36,0.282 -0.704,0.596 -1.027,0.941 -3.356,3.586 -3.168,9.213 0.419,12.568 l 17.923,16.765 c -5.517,15.695 -10.804,34.718 0.121,54.317 11.452,20.546 39.992,40.295 67.628,47.411 15.059,3.878 30.351,4.168 45.108,-0.111 0.899,-0.26 1.794,-0.538 2.685,-0.831 12.076,-3.978 23.457,-10.992 33.804,-21.206 23.129,-22.824 43.663,-64.833 16.719,-107.872 -18.324,-29.271 -58.86,-58.099 -89.31,-79.896 -12.078,-8.648 -22.627,-16.206 -30.346,-22.572 -14.817,-12.22 -17.612,-18.341 -17.085,-21.829 2.376,1.834 4.758,3.672 7.145,5.505 3.886,2.984 7.787,5.958 11.699,8.904 26.495,19.947 53.522,38.554 80.003,49.408 6.731,2.76 13.427,5.019 20.07,6.672 0.704,0.175 1.408,0.343 2.111,0.503 11.755,2.699 23.25,3.449 34.309,3.047 0.32,3.765 0.582,7.486 0.653,11.067 0.351,17.749 -3.821,31.656 -8.543,44.342 7.846,0.032 15.583,-0.289 23.899,-1.907 7.269,-1.416 15.05,-3.836 23.17,-6.678 5.01,8.538 8.905,16.819 12.024,24.886 l 0.001,0.003 c 0.84,2.173 1.625,4.33 2.362,6.473 3.285,9.544 5.625,18.804 7.672,27.869 v -0.002 c 8.814,-6.707 17.215,-13.588 24.959,-21.862 9.08,-9.7 17.37,-21.429 25.821,-33.819 C -6.316,-8.193 -2.817,-4.016 0,0"
             style="fill:#ffffff;fill-opacity:1;fill-rule:nonzero;stroke:none"
             id="path20" />
        </g>
        <g
           id="g22"
           transform="translate(64.3554,250)">
          <path
             d="m 0,0 c 0,102.529 83.116,185.645 185.645,185.645 89.578,0 164.334,-63.448 181.79,-147.854 -2.816,-4.016 -6.316,-8.193 -10.85,-12.599 -8.45,12.39 -16.74,24.119 -25.82,33.819 -7.744,8.274 -16.146,15.156 -24.96,21.862 l 10e-4,0.002 c -2.047,-9.065 -4.387,-18.325 -7.673,-27.869 -0.737,-2.143 -1.522,-4.3 -2.361,-6.473 L 295.77,46.53 c -3.119,-8.067 -7.014,-16.348 -12.024,-24.886 -8.119,2.842 -15.901,5.262 -23.17,6.678 -8.315,1.618 -16.053,1.939 -23.899,1.907 4.723,-12.686 8.894,-26.593 8.543,-44.342 -0.071,-3.581 -0.333,-7.302 -0.653,-11.067 -11.059,0.402 -22.554,-0.348 -34.308,-3.047 -0.704,-0.16 -1.407,-0.328 -2.111,-0.503 -6.644,-1.653 -13.34,-3.912 -20.071,-6.671 -26.48,-10.854 -53.508,-29.462 -80.002,-49.409 -3.913,-2.946 -7.813,-5.92 -11.699,-8.904 -2.388,-1.833 -4.769,-3.671 -7.145,-5.505 -0.528,3.488 2.267,9.609 17.084,21.829 7.72,6.366 18.268,13.924 30.347,22.572 30.449,21.797 70.985,50.625 89.309,79.896 26.944,43.039 6.41,85.048 -16.718,107.872 -10.348,10.214 -21.729,17.228 -33.804,21.206 -0.891,0.293 -1.787,0.571 -2.685,0.831 -14.757,4.279 -30.049,3.989 -45.108,0.111 C 100.019,147.982 71.48,128.233 60.027,107.687 49.103,88.088 54.389,69.065 59.907,53.37 L 41.984,36.605 c -3.587,-3.355 -3.775,-8.982 -0.42,-12.568 0.324,-0.345 0.667,-0.659 1.028,-0.941 -0.167,0.136 -0.313,0.296 -0.47,0.444 0.162,-0.152 0.313,-0.317 0.485,-0.457 0.019,-0.014 0.038,-0.028 0.057,-0.043 h -0.001 c 0.823,-0.656 1.763,-1.164 2.768,-1.495 1.625,-0.535 3.423,-0.608 5.194,-0.108 15.612,4.413 31.289,8.845 44.168,12.687 l 0.041,0.011 c 8.655,2.582 18.003,5.374 25.405,11.289 3.264,2.61 6.123,5.783 8.484,9.698 2.96,4.908 5.03,10.893 6.753,15.779 1.941,5.507 3.553,9.972 5.637,13.428 0.937,1.554 1.838,2.668 2.699,3.451 0.148,0.134 0.3,0.264 0.456,0.389 2.627,2.099 6.849,2.928 11.066,1.539 2.614,-0.862 5.227,-2.574 7.457,-5.365 0.102,-0.128 0.201,-0.254 0.302,-0.387 5.037,-6.647 8.57,-20.173 -9.564,-34.666 -1.981,-1.583 -4.234,-3.185 -6.787,-4.785 C 135.805,37.641 119.941,31.06 101.348,23.384 79.157,14.222 53.668,3.725 31.715,-10.051 25.84,-13.74 20.17,-17.689 14.842,-21.947 14.509,-22.213 14.185,-22.474 13.855,-22.743 9.971,-25.9 6.327,-29.229 2.868,-32.673 0.985,-22.066 0,-11.148 0,0"
             style="fill:#de3c30;fill-opacity:1;fill-rule:nonzero;stroke:none"
             id="path24" />
        </g>
        <g
           id="g26"
           transform="translate(136.1505,330.4917)">
          <path
             d="m 0,0 c -0.129,0.677 -0.104,1.203 -0.074,1.769 0.048,0.893 0.221,2.006 0.347,2.63 0.03,0.152 0.116,0.565 0.083,1.11 C 0.345,5.683 0.325,5.826 0.309,5.923 L 0.266,6.071 C 0.234,6.156 0.195,6.213 0.149,6.243 0.102,6.272 0.049,6.272 -0.011,6.244 -0.085,6.21 -0.17,6.126 -0.267,5.989 -0.344,5.88 -0.424,5.744 -0.508,5.582 L -0.634,5.324 C -0.709,5.16 -0.796,4.96 -0.886,4.728 -0.927,4.622 -1.014,4.397 -1.089,4.159 -1.172,3.896 -1.269,3.523 -1.329,3.05 -1.369,2.804 -1.401,2.491 -1.393,2.128 -1.392,2.082 -1.381,1.687 -1.298,1.255 -1.241,0.961 -1.085,0.285 -0.511,-0.696 0.123,-1.78 0.904,-2.615 1.55,-3.2 1.24,-2.706 0.93,-2.212 0.619,-1.719 0.411,-1.337 0.144,-0.752 0,0 M 15.49,10.986 C 15.267,8.656 14.87,6.498 14.302,4.509 13.702,2.493 12.905,0.79 11.904,-0.602 10.886,-2.032 9.732,-3.181 8.443,-4.049 L 7.476,-4.636 C 6.82,-4.989 6.157,-5.262 5.487,-5.453 4.817,-5.643 4.151,-5.746 3.492,-5.763 2.679,-5.789 1.873,-5.661 1.071,-5.38 c -0.634,0.228 -1.229,0.539 -1.787,0.934 l -0.797,0.643 c -0.508,0.464 -0.956,0.987 -1.342,1.564 -0.387,0.579 -0.7,1.195 -0.934,1.85 -0.489,1.327 -0.585,2.697 -0.292,4.11 l 0.317,1.035 c 0.267,0.686 0.624,1.363 1.07,2.028 0.914,1.334 2.046,2.61 3.396,3.824 2.049,1.945 6.886,5.56 14.512,10.846 l 0.761,0.527 C 15.959,18.172 15.798,14.507 15.49,10.986"
             style="fill:#de3c30;fill-opacity:1;fill-rule:nonzero;stroke:none"
             id="path28" />
        </g>
        <g
           id="g30"
           transform="translate(377.1036,86.9082)">
          <path
             d="m 0,0 8.342,9.991 c 5.82,-4.778 12.337,-7.558 19.635,-7.558 5.56,0 8.427,2.258 8.427,5.473 0,3.563 -2.78,4.344 -11.467,6.43 -12.773,2.867 -22.243,6.342 -22.243,18.332 0,11.469 9.209,19.114 22.85,19.114 9.992,0 17.811,-2.867 24.154,-8.167 L 42.139,33.016 c -5.474,4.17 -11.469,6.342 -17.03,6.342 -4.778,0 -7.471,-2.259 -7.471,-5.213 0,-3.649 2.867,-4.866 11.729,-6.777 C 42.747,24.501 51.349,20.678 51.349,9.47 51.349,-2.52 42.226,-9.992 27.456,-9.992 16.855,-9.992 7.212,-6.517 0,0 m -33.187,4.518 c 10.166,0 17.464,6.864 17.464,16.42 0,9.558 -7.298,16.334 -17.464,16.334 h -9.209 V 4.518 Z M -57.253,50.74 h 21.808 c 20.505,0 34.927,-12.338 34.927,-29.802 0,-17.462 -14.422,-29.887 -34.927,-29.887 H -57.253 Z M -77.146,20.938 c 0,9.384 -7.732,17.377 -16.855,17.377 -9.122,0 -16.855,-7.993 -16.855,-17.377 0,-9.469 7.733,-17.462 16.855,-17.462 9.123,0 16.855,7.993 16.855,17.462 m -48.915,0 c 0,16.769 14.684,30.844 32.06,30.844 17.464,0 32.147,-14.075 32.147,-30.844 0,-16.768 -14.683,-30.93 -32.147,-30.93 -17.376,0 -32.06,14.162 -32.06,30.93 m -17.373,0 c 0,9.384 -7.732,17.377 -16.855,17.377 -9.122,0 -16.856,-7.993 -16.856,-17.377 0,-9.469 7.734,-17.462 16.856,-17.462 9.123,0 16.855,7.993 16.855,17.462 m -48.915,0 c 0,16.769 14.684,30.844 32.06,30.844 17.464,0 32.147,-14.075 32.147,-30.844 0,-16.768 -14.683,-30.93 -32.147,-30.93 -17.376,0 -32.06,14.162 -32.06,30.93 M -193.562,4.344 V -8.949 h -43.529 V 50.74 h 14.771 V 4.344 Z m -70.199,-0.696 c 4.345,0 7.472,2.521 7.472,5.996 0,3.475 -3.127,5.995 -7.472,5.995 h -15.03 V 3.648 Z m -2.259,23.459 c 4.084,0 7.038,2.346 7.038,5.561 0,3.215 -2.954,5.474 -7.038,5.474 h -12.771 V 27.107 Z m -27.542,23.633 h 31.192 c 11.034,0 18.68,-6.343 18.68,-15.031 0,-5.908 -3.041,-10.687 -8.254,-13.293 6.863,-3.041 10.947,-8.688 10.947,-15.205 0,-9.557 -8.428,-16.16 -20.244,-16.16 h -32.321 z M 26.084,95.651 V 88.113 H 49.026 V 77.335 H 26.084 V 68.811 H 51.349 V 58.031 H 14.407 v 48.4 H 51.349 V 95.651 Z M -34.207,79.236 v 27.195 H -22.53 V 79.8 c 0,-6.833 4.233,-11.695 10.105,-11.695 5.942,0 10.175,4.862 10.175,11.695 v 26.631 H 9.357 V 79.236 c 0,-12.963 -8.944,-22.05 -21.782,-22.05 -12.768,0 -21.782,9.087 -21.782,22.05 m -31.61,4.932 h 9.012 c 4.03,0 6.897,2.255 6.897,5.636 0,3.382 -2.867,5.636 -6.897,5.636 h -9.012 z m 16.046,-26.137 -10.311,15.147 h -5.735 V 58.031 h -11.677 v 48.4 h 21.782 c 10.311,0 17.822,-6.834 17.822,-16.627 0,-7.045 -3.892,-12.611 -9.969,-15.147 l 11.335,-16.626 z m -56.399,37.62 h -14.271 v 10.78 h 40.15 v -10.78 h -14.203 v -37.62 h -11.676 z"
             style="fill:#de3c30;fill-opacity:1;fill-rule:nonzero;stroke:none"
             id="path32" />
        </g>
      </g>
    </g>
  </g>
</svg>
